#!OML:ASF F:\twosubjects\two\Thursday\Session 1\justin.ASF
:FULLY-SPECIFIED
:DEGREES
403
root 10.368 17.8455 -12.1929 1.85581 -46.2319 5.27104
lowerback -2.77048 2.96453 -4.57397
upperback 0.386066 4.10528 0.18053
thorax 1.61491 2.00626 2.90008
lowerneck -18.311 7.51377 -2.88902
upperneck 22.6548 10.1392 4.63318
head 9.78763 4.97459 3.44242
rclavicle 4.14963e-014 1.59028e-015
rhumerus -42.4817 -27.39 -64.7314
rradius 24.6876
rwrist 0.87468
rhand -18.2325 9.97592
rfingers 7.12502
rthumb 8.04595 -19.8509
lclavicle 4.14963e-014 1.59028e-015
lhumerus -45.9877 32.1532 64.8969
lradius 20.6045
lwrist -18.6584
lhand -3.6466 43.9685
lfingers 7.12502
lthumb 22.0933 72.7264
rfemur -5.03176 -5.40616 7.67604
rtibia 21.2939
rfoot -16.3473 -18.1342
rtoes -17.3381
lfemur -6.43197 8.51383 -25.1703
ltibia 15.0225
lfoot -13.3411 -2.00853
ltoes -9.71165
404
root 10.3682 17.8467 -12.2013 1.83648 -45.8697 5.23014
lowerback -2.73255 2.8644 -4.58599
upperback 0.434646 3.97089 0.222593
thorax 1.65104 1.93719 2.94562
lowerneck -18.0238 7.59803 -2.62433
upperneck 22.4114 10.2536 4.30094
head 9.6802 5.01581 3.27601
rclavicle -1.64991e-014 -7.15625e-015
rhumerus -42.0802 -27.1024 -65.1034
rradius 24.7479
rwrist 0.964235
rhand -18.2011 10.1137
rfingers 7.12502
rthumb 8.07628 -19.712
lclavicle -1.64991e-014 -7.15625e-015
lhumerus -44.976 31.5106 65.7184
lradius 20.4702
lwrist -18.4772
lhand -4.03055 43.9973
lfingers 7.12502
lthumb 21.7246 72.7982
rfemur -4.92921 -5.69769 7.72508
rtibia 21.3371
rfoot -16.3845 -18.219
rtoes -17.091
lfemur -6.40534 8.53844 -25.0988
ltibia 15.0223
lfoot -13.3867 -2.38081
ltoes -10.0042
405
root 10.3687 17.8466 -12.2126 1.70318 -45.578 5.35257
lowerback -2.61344 2.78408 -4.77346
upperback 0.415281 3.8629 0.236659
thorax 1.56023 1.88412 3.05363
lowerneck -18.1657 7.63552 -2.79545
upperneck 22.7375 10.3097 4.51039
head 9.79564 5.04453 3.40314
rclavicle 7.55382e-015 -1.59028e-015
rhumerus -41.7434 -26.5878 -65.5972
rradius 24.8498
rwrist 0.574712
rhand -18.3761 10.365
rfingers 7.12502
rthumb 7.90737 -19.4671
lclavicle 7.55382e-015 -1.59028e-015
lhumerus -44.0229 30.7564 66.4731
lradius 20.4191
lwrist -18.2009
lhand -3.78707 44.5332
lfingers 7.12502
lthumb 21.9584 73.3069
rfemur -4.85398 -5.85012 7.65652
rtibia 21.3912
rfoot -16.4571 -18.3243
rtoes -16.7553
lfemur -6.39456 8.57794 -25.1477
ltibia 15.0262
lfoot -13.381 -2.75173
ltoes -9.88726
406
root 10.3707 17.845 -12.2222 1.53946 -45.4007 5.56258
lowerback -2.58537 2.76712 -4.92559
upperback 0.43277 3.84527 0.149059
thorax 1.56029 1.87371 3.04674
lowerneck -18.2458 7.67787 -2.71008
upperneck 22.9414 10.3241 4.60125
head 9.88153 5.06394 3.4371
rclavicle -1.27421e-013 -3.97569e-016
rhumerus -41.3446 -26.3128 -66.1443
rradius 24.9418
rwrist 0.12702
rhand -18.3654 10.5087
rfingers 7.12502
rthumb 7.91766 -19.323
lclavicle -1.27421e-013 -3.97569e-016
lhumerus -43.0822 30.0379 67.1202
lradius 20.7319
lwrist -17.963
lhand -3.64132 45.3726
lfingers 7.12502
lthumb 22.0984 74.1298
rfemur -4.78537 -5.8022 7.50845
rtibia 21.3688
rfoot -16.5964 -18.4375
rtoes -16.5276
lfemur -6.47 8.43267 -25.2957
ltibia 15.1348
lfoot -13.3576 -2.78962
ltoes -9.73903
407
root 10.3738 17.8433 -12.2277 1.6361 -45.2876 5.38332
lowerback -2.54852 2.75589 -4.71407
upperback 0.432359 3.82205 0.118886
thorax 1.55679 1.86431 2.89545
lowerneck -17.8893 7.73222 -2.38018
upperneck 22.6792 10.3689 4.29991
head 9.75982 5.08281 3.25777
rclavicle -4.3832e-014 6.36111e-015
rhumerus -40.9212 -26.0215 -66.7388
rradius 25.092
rwrist -0.0961846
rhand -18.3254 10.2149
rfingers 7.12502
rthumb 7.95629 -19.6154
lclavicle -4.3832e-014 6.36111e-015
lhumerus -42.391 29.5766 67.5038
lradius 20.9008
lwrist -18.4209
lhand -2.89885 45.8187
lfingers 7.12502
lthumb 22.811 74.4899
rfemur -4.72598 -5.80534 7.66151
rtibia 21.325
rfoot -16.4807 -18.5819
rtoes -17.1934
lfemur -6.54353 8.27809 -25.1578
ltibia 15.3003
lfoot -13.3994 -2.70109
ltoes -9.57984
408
root 10.3758 17.8404 -12.2344 1.83355 -45.1931 5.03936
lowerback -2.46372 2.76188 -4.46831
upperback 0.4208 3.81677 0.189453
thorax 1.50864 1.86529 2.82591
lowerneck -17.61 7.62638 -2.29622
upperneck 22.3968 10.2649 3.9943
head 9.63746 5.01207 3.10103
rclavicle 5.35228e-014 8.74653e-015
rhumerus -40.4852 -25.5355 -67.326
rradius 25.3123
rwrist -0.159424
rhand -18.5045 9.60503
rfingers 7.12502
rthumb 7.78344 -20.2317
lclavicle 5.35228e-014 8.74653e-015
lhumerus -41.6427 29.2464 67.8823
lradius 20.6521
lwrist -19.3214
lhand -2.90866 45.3212
lfingers 7.12502
lthumb 22.8016 73.9935
rfemur -4.69276 -5.87791 7.95438
rtibia 21.3358
rfoot -16.3001 -18.7275
rtoes -17.9848
lfemur -6.58529 8.25734 -24.8743
ltibia 15.4326
lfoot -13.4587 -2.73934
ltoes -9.41526
409
root 10.3778 17.8417 -12.2495 1.89916 -45.079 4.82651
lowerback -2.27095 2.7453 -4.42859
upperback 0.358806 3.78077 0.306308
thorax 1.33426 1.85279 2.90982
lowerneck -17.4369 7.51938 -2.50547
upperneck 22.3682 10.1649 4.01685
head 9.58575 4.95241 3.11829
rclavicle 1.68967e-015 -3.57812e-015
rhumerus -40.1025 -25.1452 -67.6289
rradius 25.3583
rwrist 0.145891
rhand -18.0272 9.53378
rfingers 7.12502
rthumb 8.24404 -20.2854
lclavicle 1.68967e-015 -3.57812e-015
lhumerus -40.7799 28.5168 68.5684
lradius 20.336
lwrist -19.5604
lhand -4.32686 44.5887
lfingers 7.12502
lthumb 21.4401 73.4223
rfemur -4.64896 -5.78476 8.17393
rtibia 21.4045
rfoot -16.3598 -18.9227
rtoes -17.7696
lfemur -6.58864 8.4787 -24.6495
ltibia 15.4937
lfoot -13.5381 -3.11034
ltoes -9.06854
410
root 10.3801 17.8463 -12.2629 1.7544 -45.0342 4.87797
lowerback -2.085 2.70601 -4.52137
upperback 0.28517 3.71927 0.347822
thorax 1.15071 1.82712 2.98989
lowerneck -17.3297 7.62335 -2.68823
upperneck 22.6138 10.2997 4.26163
head 9.6203 5.0238 3.25035
rclavicle -3.58806e-014 3.97569e-015
rhumerus -39.7009 -24.8819 -67.8448
rradius 25.1932
rwrist 0.644265
rhand -16.9107 10.6894
rfingers 7.12502
rthumb 9.3215 -19.0845
lclavicle -3.58806e-014 3.97569e-015
lhumerus -39.9628 27.4072 69.4437
lradius 20.344
lwrist -19.171
lhand -5.0848 44.5488
lfingers 7.12502
lthumb 20.7119 73.4635
rfemur -4.55784 -5.55627 8.15349
rtibia 21.5107
rfoot -16.7568 -18.8951
rtoes -16.3137
lfemur -6.51989 8.52718 -24.6476
ltibia 15.4926
lfoot -13.5562 -3.21708
ltoes -8.90471
411
root 10.381 17.8455 -12.2688 1.43403 -45.0178 5.33008
lowerback -2.16953 2.67395 -4.85183
upperback 0.303892 3.69084 0.260593
thorax 1.20504 1.8089 3.08898
lowerneck -17.2385 7.72031 -2.68421
upperneck 22.6218 10.416 4.32261
head 9.59739 5.0858 3.2793
rclavicle -1.58034e-014 -9.14409e-015
rhumerus -39.1237 -24.6497 -68.2628
rradius 25.1474
rwrist 0.82193
rhand -16.0814 11.8203
rfingers 7.12502
rthumb 10.1217 -17.9163
lclavicle -1.58034e-014 -9.14409e-015
lhumerus -39.0565 26.4953 70.2626
lradius 20.6343
lwrist -18.8777
lhand -5.16748 44.7359
lfingers 7.12502
lthumb 20.6325 73.6593
rfemur -4.56094 -5.49156 7.78519
rtibia 21.5888
rfoot -17.0414 -18.7791
rtoes -15.4577
lfemur -6.54165 8.28344 -25.0074
ltibia 15.5211
lfoot -13.5744 -2.95682
ltoes -9.1751
412
root 10.3839 17.846 -12.2727 1.47516 -44.9963 5.30836
lowerback -2.30059 2.67097 -4.79123
upperback 0.306007 3.69273 0.236221
thorax 1.28588 1.80815 3.03756
lowerneck -16.857 7.65856 -2.66432
upperneck 22.2042 10.3345 4.22293
head 9.39162 5.04944 3.19312
rclavicle -1.27123e-013 6.75868e-015
rhumerus -38.5052 -24.3228 -68.8334
rradius 25.2314
rwrist 0.74121
rhand -16.0116 11.7765
rfingers 7.12502
rthumb 10.189 -17.9567
lclavicle -1.27123e-013 6.75868e-015
lhumerus -38.2095 25.8019 70.8636
lradius 20.8776
lwrist -18.9274
lhand -4.47138 44.6734
lfingers 7.12502
lthumb 21.3012 73.5227
rfemur -4.59254 -5.50484 7.80693
rtibia 21.5666
rfoot -17.0003 -18.8284
rtoes -15.4838
lfemur -6.64508 8.08496 -24.9974
ltibia 15.6477
lfoot -13.6339 -2.79452
ltoes -8.81931
413
root 10.3903 17.8516 -12.2769 2.05092 -44.9913 4.32202
lowerback -2.19935 2.71766 -3.94602
upperback 0.312149 3.72548 0.378166
thorax 1.27606 1.83095 2.70827
lowerneck -16.599 7.57585 -2.70416
upperneck 21.9656 10.2269 4.19791
head 9.26483 4.9997 3.15389
rclavicle -8.99749e-014 -7.95139e-016
rhumerus -37.8768 -24.0673 -69.3815
rradius 25.2512
rwrist 0.744477
rhand -16.2839 11.1901
rfingers 7.12502
rthumb 9.92623 -18.5559
lclavicle -8.99749e-014 -7.95139e-016
lhumerus -37.2574 25.0063 71.4782
lradius 20.9394
lwrist -18.8794
lhand -2.97123 44.9794
lfingers 7.12502
lthumb 22.7416 73.6591
rfemur -4.43105 -5.34348 8.59169
rtibia 21.4592
rfoot -17.0203 -18.8876
rtoes -14.9046
lfemur -6.61751 8.02338 -24.2089
ltibia 15.795
lfoot -13.6359 -2.69339
ltoes -9.16701
